<?xml version="1.0" encoding="utf-8"?>
<!-- Generator: Adobe Illustrator 25.1.0, SVG Export Plug-In . SVG Version: 6.00 Build 0)  -->
<svg version="1.1" id="Layer_1" xmlns="http://www.w3.org/2000/svg" xmlns:xlink="http://www.w3.org/1999/xlink" x="0px" y="0px"
	 viewBox="0 0 1126 146" style="enable-background:new 0 0 1126 146;" xml:space="preserve">
<path d="M227.7,28.6c0.7-0.1,1.4-0.3,2-0.3c13.2,0.1,26.5,0.1,39.7,0.3c2.9,0,5.8,0.6,8.6,1.5c8.3,2.7,13,10.3,12.6,19.9
	c-0.4,9.1-4.7,15.4-12.5,17.9c-1.6,0.5-3.2,0.8-5.5,1.3c1.6,0.5,2.7,0.7,3.7,1.1c3.7,1.5,7.5,2.8,10.9,4.8c12.8,7.4,12,29.3-3.1,36
	c-3.5,1.6-7.6,2.6-11.5,2.7c-14.2,0.3-28.3,0.1-42.5,0.1c-0.8,0-1.6,0-3.2,0c0.8-0.8,1.1-1.2,1.5-1.4c0.3-0.2,0.8,0,1.2-0.1
	c7.1-0.6,9.6-3.2,9.6-10.3c0-20.4,0-40.8,0-61.2c0-1.8-0.2-3.7-0.4-5.5c-0.4-3.6-2.4-5.3-5.9-5.5c-1.8-0.1-3.6-0.1-5.5-0.2
	C227.7,29.4,227.7,29,227.7,28.6z M249.9,71.1c0,11.1,0,22.2,0,33.2c0,4.4,1.6,6.8,6,7.2c5.2,0.5,10.5,0.6,15.7,0.2
	c4.7-0.3,8.3-3.1,10.7-7.3c2.7-4.6,3.5-9.6,3.2-14.9c-0.5-8-5.3-16.6-14.9-18.2c-3.8-0.6-7.6-0.6-11.4-1c-0.6-0.1-1.1-0.6-1.7-0.9
	c0.6-0.3,1.1-0.9,1.7-0.9c1.8-0.1,3.7,0,5.5-0.1c6-0.4,11-2.7,13.9-8.3c3.7-7.2,3.8-14.8,1.1-22.3c-1.4-4-4.6-6.9-9-7.4
	c-4.5-0.5-9.1-0.5-13.7-0.5c-4.6,0-6.1,1.3-6.9,5.8c-0.2,1.1-0.2,2.2-0.2,3.2C249.9,49.8,249.9,60.4,249.9,71.1z"/>
<path d="M146.4,28.6c0.6-0.1,1.2-0.2,1.8-0.2c13,0.1,26-0.1,39,0.3c17.1,0.4,29.7,10.4,34,27c3.7,14.3,3,28.3-4.3,41.3
	c-6,10.7-15.4,16.5-27.6,16.9c-13.7,0.4-27.5,0.1-41.2,0.1c-0.6,0-1.1-0.1-1.8-0.7c0.5-0.2,1-0.6,1.6-0.7c6.5-0.8,8.6-3.1,8.6-9.6
	c0-21.2,0-42.5,0-63.7c0-0.7,0-1.5,0-2.2c-0.5-5.6-1.9-6.8-7.5-7.1c-0.9,0-1.7-0.3-2.6-0.4C146.3,29.2,146.4,28.9,146.4,28.6z
	 M181.3,29.4c0,0.2,0,0.4-0.1,0.7c-2.4,0-4.8,0-7.2,0c-4.8,0.1-6.9,2-7,6.8c-0.1,12-0.2,24-0.2,36c0,11.1,0,22.2,0.2,33.2
	c0,3.6,1.6,5.6,5.2,5.8c5.8,0.3,11.7,0.5,17.4-0.1c7.5-0.7,11.9-6.1,15.4-12.2c4-7,5.8-14.7,6.8-22.5c1.2-9.8,1.7-19.6-1.5-29.2
	c-2.6-7.8-7.1-14.1-15.4-16.4C190.7,30.1,185.9,30,181.3,29.4z"/>
<path d="M1092,72.3c-0.2,10.8-2.7,20.8-9.5,29.4c-9.4,11.9-22,15.8-36.5,12.9c-16-3.1-25.9-13.6-31.1-28.6
	c-3.8-11.1-4-22.3-0.4-33.5c5.4-17.2,22.4-27.8,40.3-25.9c18.9,2,32.5,16.9,35.9,34.8C1091.4,65,1091.6,68.7,1092,72.3z
	 M1020.9,75.2c-0.1,12.2,2.5,19.8,7.8,26.7c10.3,13.4,26.4,14.1,37.9,1.8c4.9-5.2,8.7-11.2,11.2-17.8c4.3-11.2,6.8-22.6,3.6-34.6
	c-2.2-8.2-6.2-15.3-14.1-19.4c-9.1-4.7-21-2.3-29.1,5.7C1026.8,48.8,1021.7,62.7,1020.9,75.2z"/>
<path d="M643.9,57.7c-0.8-1.2-1.4-1.8-1.7-2.5c-2.6-6.2-5.8-12-10.1-17.1c-5-5.9-11.3-9.2-19-9.8c-7.9-0.6-14.1,3.4-18.1,11.6
	c-3.8,7.9-4.6,16.1-2.5,24.5c1.5,6.2,6.2,9.5,12.4,8.5c5.1-0.8,10-2.5,15-3.6c7.2-1.6,14.3-1,20.8,2.5c9.9,5.4,12.6,16.5,8.8,26.8
	c-3.5,9.6-11.3,14-20.8,15.8c-10,1.9-19.8,1.5-29.5-2.1c-2.3-0.9-4.7-1.7-7.2-2.1c-2.3-0.4-4.8-0.4-7.6-0.6
	c-0.9-8.3-1.9-16.9-2.9-25.4c0.3-0.1,0.6-0.2,0.9-0.3c0.5,0.7,1,1.4,1.4,2.2c3,5.6,5.6,11.6,9.1,16.9c11.2,17.4,37.9,11.4,44.4-3.2
	c3.3-7.2,3.4-14.6,0.1-21.8c-2.8-6.2-9.5-8.7-17.5-6.8c-4.6,1.1-9.1,2.8-13.8,3.5c-8.7,1.3-16.7-0.2-22.2-8
	c-5.3-7.7-4.9-19.2,1.1-27.2c7.6-10.2,17.8-14.4,30.4-12.7c4.4,0.6,8.7,1.7,13,2.2c2.3,0.3,4.8-0.2,7.1-0.6c1.3-0.2,2.3-0.5,2.6,1.2
	c1.9,8.8,3.9,17.7,5.8,26.5C644.3,56.4,644.1,56.7,643.9,57.7z"/>
<path d="M24.3,59.4c0.6-3.3,1.1-6.6,1.8-9.9c1.3-7.1,2.7-14.2,4.1-21.3c0.5-2.6,0.7-2.6,3.3-1.5c1.7,0.8,3.6,1.5,5.5,1.5
	c15.7,0.1,31.3,0.1,47,0c1.9,0,3.8-1,5.7-1.5c0.8-0.2,1.6-0.5,2.6-0.8c2.2,11.4,4.2,22.5,6.3,33.5c-0.3,0.1-0.5,0.3-0.8,0.4
	c-0.4-0.7-0.9-1.3-1.1-2.1c-2.2-7.8-5.7-14.9-10.7-21.2c-4.6-5.8-10.5-7.2-17.3-6.2c-1,0.1-2.1,1.3-2.5,2.3
	c-0.5,1.1-0.4,2.4-0.4,3.7c0,21.9,0.1,43.8-0.1,65.7c0,6.4,0.6,9.6,9.9,10.7c0.7,0.1,1.3,0.4,2,0.6c0,0.2-0.1,0.4-0.1,0.6
	c-11.2,0-22.5,0-34.4,0c0.7-0.6,1-1.1,1.4-1.2c0.9-0.2,1.8-0.1,2.7-0.3c4.8-1,8-2.1,8-9.6c-0.2-22.7-0.1-45.3-0.1-68
	c0-3.9-0.8-4.3-4.6-4.8c-7.7-1-12.8,2.7-17.1,8.5C30.9,44.4,28.1,51,26,58c-0.2,0.6-0.6,1.2-1,1.7C24.8,59.6,24.5,59.5,24.3,59.4z"
	/>
<path d="M389.3,113.9c-11.2,0-22.4,0-33.7,0c-0.1-0.2-0.1-0.4-0.2-0.5c0.5-0.3,1-0.6,1.6-0.7c1.5-0.2,3-0.2,4.4-0.5
	c3-0.6,4.3-2.5,3.4-5.3c-2.3-6.4-4.8-12.8-7.3-19.1c-0.9-2.2-2.8-3.6-5-3.6c-8.6-0.2-17.3-0.2-25.9-0.1c-2.7,0-4.6,1.5-5.5,4
	c-2.3,5.5-4.5,11.1-6.6,16.7c-0.8,2-0.3,4.1,1.7,4.9c3,1.3,6.2,2,9.4,3c0.7,0.2,1.4,0.3,2.1,0.5c0,0.2-0.1,0.5-0.1,0.7
	c-10.1,0-20.3,0-31.2,0c1-0.6,1.4-1.1,1.9-1.1c7.8-0.1,12.4-4.8,15.3-11.4c2.8-6.3,5-12.9,7.4-19.3c5.1-13.8,10.2-27.6,15.3-41.4
	c0.5-1.2,0.9-2.5,1.2-3.8c1-3.7,0-5.3-3.7-6.2c-1.6-0.4-3.3-0.3-4.9-0.6c-0.7-0.1-1.3-0.4-2-0.6c0-0.3,0.1-0.5,0.1-0.8
	c0.8-0.1,1.7-0.2,2.5-0.2c4.9,0,9.8,0.1,14.7-0.1c2-0.1,2.9,0.6,3.6,2.5c8.8,24,17.8,47.9,26.4,71.9c2.3,6.4,6.6,9.2,13,9.9
	c0.8,0.1,1.5,0.3,2.2,0.5C389.4,113.4,389.3,113.6,389.3,113.9z M339.3,39.9c-0.6,1-1.2,1.5-1.4,2.2c-4.4,11.7-8.8,23.5-13.1,35.3
	c-1,2.6-0.2,3.8,2.5,3.8c8,0.1,16,0.1,24-0.1c2.6-0.1,3.5-1.4,2.6-3.9c-4.2-11.6-8.5-23.3-12.9-34.9C340.7,41.6,340,41,339.3,39.9z"
	/>
<path d="M842.2,28.7c10.1,0,20.2,0,30.3,0c0.1,0.2,0.1,0.4,0.2,0.7c-0.7,0.2-1.5,0.6-2.2,0.6c-7.3-0.1-10.4,4.6-10.4,11
	c-0.1,13.9,0.1,27.8-0.1,41.7c-0.1,7.2-1.7,14-5.7,20.1c-4.5,6.9-11,11-19.2,12.2c-7.3,1.1-14.5,0.6-21.5-1.1
	c-11-2.7-17.4-10-19.5-20.9c-0.8-4.4-1-8.9-1.1-13.4c-0.1-12.7,0-25.3-0.1-38c0-2.1-0.2-4.2-0.4-6.2c-0.4-3.5-2.2-5.2-5.7-5.3
	c-1.7-0.1-3.5-0.1-5.2-0.4c1.4-1.5,31.5-1.7,34.4-0.2c-1.4,0.3-2.3,0.6-3.2,0.6c-7.4,0.3-8.7,1.1-8.8,8.6
	c-0.2,16.6-0.4,33.2,0.3,49.7c0.4,10.6,5,19.7,15.8,23.2c15.2,5,32.7-0.6,36.9-21.4c0.6-3.2,0.9-6.4,1-9.7c0.1-12.7,0.1-25.3,0-38
	c0-8.2-4-12.3-12.2-12.4c-1.2,0-2.5-0.2-3.7-0.3C842.1,29.4,842.2,29.1,842.2,28.7z"/>
<path d="M522,87.1c-0.1,0.7,0,1.4-0.2,2.1c-1.9,8.2-4,16.3-5.8,24.5c-0.3,1.5-0.9,1.9-2.3,1.7c-4-0.5-8.1-1.2-12.1-1.3
	c-13.6-0.2-27.1-0.1-40.7-0.1c-0.9,0-1.8,0-2.9-0.5c0.4-0.3,0.7-0.7,1.1-0.9c0.5-0.2,1,0,1.5-0.1c6.9-0.7,9.2-3.2,9.2-10.1
	c0-20.6,0-41.1,0-61.7c0-1.7-0.1-3.5-0.3-5.2c-0.4-3.5-2.5-5.3-6-5.4c-1.8-0.1-3.6-0.2-5.4-0.3c0-0.3,0-0.6,0.1-1
	c11.2,0,22.5,0,34.5,0c-0.9,0.6-1.3,1.1-1.8,1.1c-1.4,0.1-2.8,0.1-4.2,0.2c-3.4,0.1-5.2,1.6-5.8,5c-0.3,1.6-0.4,3.3-0.4,5
	c0,21.2,0,42.5,0,63.7c0,8.4,0.1,8.2,8.5,8.4c11.2,0.3,19.6-4.3,25.5-13.7c2-3.2,3.7-6.5,5.6-9.7c0.4-0.7,1-1.3,1.5-1.9
	C521.7,86.9,521.8,87,522,87.1z"/>
<path d="M874.1,113c0.6-0.2,1.2-0.3,1.9-0.5c1.8-0.4,3.6-0.7,5.3-1.2c2.6-0.9,4.2-2.7,4.3-5.5c0.1-1.4,0.3-2.8,0.3-4.2
	c0-20,0-40,0-60c0-2-0.1-4-0.4-6c-0.4-3.6-2.4-5.4-6.1-5.6c-1.8-0.1-3.6-0.2-5.3-0.4c0-0.3,0.1-0.6,0.1-1c11.2,0,22.5,0,33.7,0
	c0.1,0.1,0.1,0.3,0.2,0.4c-0.4,0.3-0.8,0.7-1.2,0.7c-0.8,0.1-1.7,0.1-2.5,0.1c-6.1,0.1-8,2-8,8.2c0,22.8,0,45.7,0,68.5
	c0,4.5,0.9,5.4,5.5,5.4c3.7-0.1,7.5-0.1,11.2-0.7c6.5-1.1,11.5-4.8,15.3-10.1c2.8-4,5.1-8.4,7.7-12.5c0.4-0.7,1-1.3,1.5-1.9
	c0.2,0.1,0.4,0.2,0.7,0.3c-0.2,1.1-0.4,2.2-0.6,3.3c-1.8,7.8-3.7,15.5-5.5,23.3c-0.3,1.6-0.9,1.8-2.4,1.6c-3.8-0.5-7.6-1.2-11.3-1.3
	c-13.8-0.2-27.7-0.1-41.5-0.1c-0.9,0-1.8,0-2.6,0C874.2,113.7,874.1,113.3,874.1,113z"/>
<path d="M1005.3,87.1c-0.1,0.6,0,1.2-0.2,1.8c-2,8.2-4,16.5-5.9,24.7c-0.4,1.6-1,1.9-2.6,1.6c-3.6-0.6-7.2-1.2-10.9-1.2
	c-13.9-0.1-27.8-0.1-41.7-0.1c-0.9,0-1.8,0-2.7,0c-0.1-0.2-0.1-0.5-0.2-0.7c0.4-0.3,0.9-0.6,1.3-0.7c1.2-0.2,2.5-0.3,3.7-0.6
	c4.9-1.1,6.7-3.1,6.8-8.1c0.1-22.2,0-44.3-0.2-66.5c0-5.9-1.9-7.3-7.9-7.5c-1.2,0-2.5-0.1-3.7-0.5c1.3-1.3,29.8-1.7,34.1-0.7
	c-0.5,0.5-0.8,1-1.2,1.1c-0.9,0.2-1.8,0.1-2.7,0.1c-5.9,0.1-7.9,2.1-7.9,8.1c-0.1,4.3,0,8.7,0,13c0,18.2,0,36.3,0,54.5
	c0,1.1,0.1,2.2,0.2,3.2c0.2,2.1,1.4,3.1,3.4,3.3c13.3,1.3,24.2-2.4,31.2-14.6c1.6-2.9,3.3-5.8,4.9-8.7c0.4-0.7,0.8-1.3,1.3-1.9
	C1004.8,86.9,1005,87,1005.3,87.1z"/>
<path d="M454.9,87.1c0,0.6,0,1.2-0.1,1.8c-2,8.2-4,16.5-5.9,24.7c-0.4,1.6-1,1.9-2.6,1.6c-3.3-0.6-6.7-1.2-10.1-1.2
	c-14.2-0.1-28.3-0.1-42.5-0.1c-0.9,0-1.8,0-2.6,0c-0.1-0.2-0.1-0.4-0.2-0.6c0.4-0.3,0.7-0.7,1.2-0.8c1.1-0.2,2.3-0.3,3.4-0.5
	c5.5-1.2,7.1-3.2,7.2-9c0-12.1,0-24.2,0-36.2c0-10,0-20-0.2-30c-0.1-4.8-2.1-6.7-7-6.8c-1.5,0-3-0.2-4.5-0.4c0-0.3,0.1-0.6,0.1-0.9
	c11.2,0,22.5,0,33.7,0c0.1,0.2,0.1,0.5,0.2,0.7c-0.8,0.2-1.7,0.5-2.5,0.5c-6.1-0.3-9.3,0.5-9.3,9.8c0,21.7,0,43.5,0,65.2
	c0,0.8,0,1.7,0,2.5c0.3,3.6,1.2,4.5,4.8,4.6c6.2,0.2,12.4,0.1,18.1-2.8c5-2.6,8.6-6.6,11.5-11.2c1.9-3,3.6-6.2,5.4-9.3
	c0.4-0.7,1-1.3,1.5-1.9C454.5,86.9,454.7,87,454.9,87.1z"/>
<path d="M735.5,57.2c-0.5-0.9-1.1-1.7-1.5-2.6c-3.4-6.7-6.9-13.3-12.4-18.6c-5.7-5.6-12.5-8.3-20.6-8c-6.4,0.3-11.1,3.8-14.9,8.5
	c-7.4,9-11.1,19.6-13.1,30.9c-1.1,6.3-1.7,12.7-0.2,19.1c3.4,13.8,12.3,22.5,25.9,25.4c15.1,3.2,31.8-3.5,38.3-20.2
	c0.3-0.8,0.8-1.4,1.8-1.9c0,0.5,0,1.1-0.2,1.6c-4,13.7-17.7,23.7-31.9,24.2c-22.9,0.9-39.6-15.7-43.2-36.9
	c-1.5-8.9-1.2-17.7,1.7-26.4c5.6-17.1,23.3-28.1,41.1-25.5c4,0.6,8.1,1.4,12.1,1.6c3.4,0.2,6.8-0.4,10.8-0.7
	c2.3,9.2,4.8,19.2,7.2,29.1C736.2,56.9,735.8,57.1,735.5,57.2z"/>
<path d="M106.8,28.6c11.2,0,22.4,0,33.6,0c0.1,0.2,0.1,0.3,0.2,0.5c-0.4,0.3-0.8,0.7-1.2,0.7c-0.7,0.1-1.5,0.1-2.2,0.1
	c-5.1-0.3-8.2,1-8.2,8.5c-0.1,21.2,0.1,42.5-0.1,63.7c0,7,2,9.2,9.6,10.3c0.7,0.1,1.4,0.3,2.1,0.4c0,0.3-0.1,0.5-0.1,0.8
	c-11.2,0-22.5,0-33.7,0c-0.1-0.2-0.1-0.3-0.2-0.5c0.5-0.2,1-0.6,1.5-0.7c1.2-0.2,2.5-0.3,3.7-0.6c4.7-1.1,6.2-2.9,6.7-7.7
	c0-0.2,0-0.3,0-0.5c0-21.6,0-43.1,0-64.7c0-0.4-0.1-0.8-0.1-1.2c-0.6-6.6-1.8-7.7-8.3-7.9c-1.1,0-2.2-0.2-3.3-0.3
	C106.7,29.3,106.8,29,106.8,28.6z"/>
<path d="M744.4,28.7c11.2,0,22.4,0,34.3,0c-0.8,0.6-1.1,1.1-1.5,1.2c-0.9,0.2-1.8,0.1-2.7,0.1c-5.7,0.1-7.8,2.1-7.8,7.9
	c-0.1,22.1,0,44.2,0,66.2c0,5.1,2.9,7.7,9.2,8.4c0.8,0.1,1.6,0.3,2.4,0.4c0,0.2-0.1,0.5-0.1,0.7c-11.2,0-22.4,0-34.1,0
	c0.5-0.5,0.8-0.9,1.2-1.1c0.4-0.2,0.8,0,1.2-0.1c7.2-0.6,9.6-3.2,9.6-10.3c0-20.4,0-40.8,0-61.2c0-1.9-0.1-3.8-0.4-5.7
	c-0.5-3.4-2.4-5.1-5.9-5.2c-1.3-0.1-2.7,0-4-0.1c-0.5,0-1-0.4-1.6-0.6C744.2,29.1,744.3,28.9,744.4,28.7z"/>
<path d="M549.3,81.5c-5.5,0-11,0-16.5,0c-0.7,0-1.4-0.6-2.2-1c0.7-0.4,1.4-1,2.1-1c11-0.1,22-0.1,32.9,0c0.8,0,1.6,0.7,2.3,1.1
	c-0.8,0.3-1.5,0.9-2.3,0.9C560.3,81.6,554.8,81.5,549.3,81.5z"/>
</svg>
