<svg width="20" height="94" viewBox="0 0 20 94" fill="none" xmlns="http://www.w3.org/2000/svg">
<path d="M12.022 77.405C14.827 77.065 16.255 75.331 16.255 72.628C16.255 71.302 15.915 70.248 15.218 69.449C14.521 68.65 13.654 68.259 12.6 68.259C11.699 68.259 11.002 68.497 10.475 68.99C9.948 69.483 9.455 70.384 8.996 71.693C8.537 73.053 8.214 73.903 8.027 74.226C7.84 74.549 7.568 74.719 7.211 74.719C6.463 74.719 5.97 74.141 5.97 72.968C5.97 71.863 6.531 71.132 7.653 70.775L7.092 68.548C4.933 68.956 3.845 70.724 3.845 72.968C3.845 74.209 4.185 75.178 4.848 75.909C5.511 76.623 6.293 76.98 7.228 76.98C8.843 76.98 9.897 76.045 10.662 73.58C11.07 72.271 11.41 71.421 11.665 71.064C11.92 70.69 12.277 70.503 12.753 70.503C13.654 70.503 14.13 71.336 14.13 72.628C14.13 74.141 13.348 74.702 11.495 74.991L12.022 77.405ZM11.274 59.6628C13.178 59.8838 14.13 60.6488 14.13 61.9918C14.13 63.6238 12.77 64.7968 9.863 64.7968C8.622 64.7968 7.67 64.5248 6.99 63.9808C6.31 63.4368 5.97 62.7738 5.97 61.9918C5.97 60.6148 6.99 59.8838 8.435 59.6798L8.078 57.4018C6.786 57.5378 5.766 58.0308 5.001 58.8978C4.236 59.7478 3.845 60.7848 3.845 62.0088C3.845 63.4198 4.372 64.6268 5.443 65.6468C6.514 66.6498 7.976 67.1598 9.863 67.1598C12.005 67.1598 13.603 66.6838 14.674 65.7318C15.728 64.7628 16.255 63.5218 16.255 61.9918C16.255 59.3568 14.572 57.6738 11.801 57.2828L11.274 59.6628ZM16 53.0286L11.58 53.0286L11.58 51.2606L16 48.8636L16 46.3816L11.359 48.9146C10.866 47.3506 9.608 46.3986 7.891 46.3986C6.735 46.3986 5.817 46.7726 5.137 47.5376C4.44 48.2856 4.1 49.2716 4.1 50.4956L4.1 55.3236L16 55.3236L16 53.0286ZM6.174 53.0286L6.174 50.6826C6.174 49.3736 6.752 48.7276 7.891 48.7276C9.03 48.7276 9.591 49.3736 9.591 50.6826L9.591 53.0286L6.174 53.0286ZM9.948 37.24C12.889 37.24 14.147 38.396 14.147 40.028C14.147 41.66 12.855 42.816 9.948 42.816C7.364 42.816 5.97 41.609 5.97 40.028C5.97 38.464 7.364 37.24 9.948 37.24ZM9.948 45.196C12.141 45.196 13.858 44.567 14.827 43.598C15.779 42.595 16.255 41.388 16.255 40.028C16.255 38.668 15.779 37.444 14.827 36.475C13.858 35.472 12.141 34.86 9.948 34.86C7.976 34.86 6.327 35.472 5.358 36.475C4.355 37.444 3.845 38.685 3.845 40.028C3.845 41.371 4.355 42.595 5.358 43.598C6.327 44.567 7.976 45.196 9.948 45.196ZM16 25.6039L13.875 25.6039L13.875 30.5169L4.1 30.5169L4.1 32.8119L16 32.8119L16 25.6039ZM16 16.7884L13.875 16.7884L13.875 21.7014L4.1 21.7014L4.1 23.9964L16 23.9964L16 16.7884Z" fill="black"/>
<path d="M18.02 90.549L18.02 90.26C17.085 91.076 14.484 92.283 10.574 92.283C7.174 92.283 4.063 91.076 3.128 90.26L3.128 90.549C3.893 91.229 7.208 93.167 10.574 93.167C14.45 93.167 17.255 91.229 18.02 90.549Z" fill="black"/>
<path d="M18.02 4.218L18.02 3.929C17.255 3.249 14.45 1.311 10.574 1.311C7.20799 1.311 3.89299 3.249 3.12799 3.929L3.12799 4.218C4.06299 3.402 7.17399 2.195 10.574 2.195C14.484 2.195 17.085 3.402 18.02 4.218Z" fill="black"/>
</svg>
