<?xml version="1.0" encoding="utf-8"?>
<!-- Generator: Adobe Illustrator 25.2.0, SVG Export Plug-In . SVG Version: 6.00 Build 0)  -->
<svg version="1.1" id="Layer_1" xmlns="http://www.w3.org/2000/svg" xmlns:xlink="http://www.w3.org/1999/xlink" x="0px" y="0px"
	 viewBox="0 0 600.3 101.1" style="enable-background:new 0 0 600.3 101.1;" xml:space="preserve">
<g>
	<path d="M594.2,66.7c0,0,0-0.1,0-0.1c0-0.8,0-1.7,0-2.5c0-0.2,0-0.4,0.1-0.5c0.2-0.5,0.7-0.8,1.3-0.8c0.6,0,1,0.3,1.1,0.8
		c0,0.1,0.1,0.2,0.1,0.3c0-0.1,0-0.2,0.1-0.2c0.1-0.2,0.2-0.5,0.3-0.7c0.5-0.8,1.9-0.8,2.3,0.2c0.1,0.2,0.2,0.5,0.2,0.7
		c0,0.9,0,1.8,0,2.7c0,0.1,0,0.1,0,0.2c-0.1-0.1-0.1-0.1-0.1-0.1c0,0,0-0.1,0-0.1c0-0.5-0.2-0.6-0.7-0.6c-1.3,0-2.6,0-3.9,0
		c-0.1,0-0.2,0-0.3,0c-0.2,0-0.3,0.2-0.3,0.4C594.3,66.5,594.3,66.6,594.2,66.7C594.2,66.7,594.2,66.7,594.2,66.7z M596.9,65.3
		c0.7,0,1.4,0,2.1,0c0.3,0,0.4-0.1,0.5-0.4c0-0.3,0-0.7,0-1c0-0.3-0.2-0.5-0.5-0.7c-0.3-0.2-0.6-0.2-0.9-0.2c-0.5,0-1.1,0.3-1.2,0.9
		c0,0.2,0,0.5-0.1,0.7c0,0,0,0.1-0.1,0.1c0,0-0.1-0.1-0.1-0.1c0-0.1,0-0.2,0-0.3c0-0.4-0.2-0.7-0.5-0.9c-0.5-0.2-0.9-0.2-1.4-0.1
		c-0.3,0.1-0.4,0.3-0.5,0.6c0,0.3,0,0.6,0,0.9c0,0.3,0.1,0.4,0.4,0.4c0.1,0,0.1,0,0.2,0C595.5,65.3,596.2,65.3,596.9,65.3z"/>
	<path d="M594.2,71.8c0,0,0-0.1,0-0.1c0-0.8,0-1.7,0-2.5c0-1.1,0.7-1.9,1.7-2.2c0.9-0.2,1.8-0.2,2.6,0.3c0.7,0.4,1,1,1.1,1.8
		c0,0.9,0,1.7,0,2.6c0,0,0,0.1,0,0.1c0,0,0-0.1,0-0.1c-0.1-0.4-0.2-0.5-0.6-0.5c-1.3,0-2.7,0-4,0c0,0-0.1,0-0.1,0
		c-0.4,0-0.4,0.1-0.5,0.5C594.3,71.7,594.3,71.8,594.2,71.8C594.2,71.8,594.2,71.8,594.2,71.8z M594.2,69.6
		C594.3,69.6,594.3,69.6,594.2,69.6c0,0.2,0,0.3,0,0.5c0,0.3,0.1,0.4,0.4,0.4c0.8,0,1.5,0,2.3,0c0.7,0,1.4,0,2.1,0
		c0.2,0,0.4-0.1,0.4-0.3c0-0.4,0-0.7,0-1.1c0-0.5-0.4-0.8-0.8-1c-0.4-0.3-0.9-0.4-1.4-0.4c-0.6-0.1-1.2-0.1-1.9,0.1
		c-0.5,0.2-0.9,0.5-1,1C594.3,69,594.3,69.3,594.2,69.6z"/>
	<path d="M597,11.8c0.7,0,1.3,0.2,1.9,0.6c0.8,0.6,1,1.4,0.8,2.3c-0.2,1-0.9,1.6-1.8,2c-0.7,0.2-1.4,0.3-2.1,0
		c-1.1-0.3-1.8-1.4-1.6-2.6c0.1-1.2,1.1-2.1,2.2-2.3C596.5,11.8,596.7,11.8,597,11.8z M597.2,16.3c0.8,0,1.3-0.2,1.7-0.5
		c0.9-0.7,0.9-1.7,0.1-2.4c-0.3-0.3-0.7-0.6-1.1-0.7c-0.7-0.3-1.4-0.4-2.2-0.2c-0.5,0.1-1,0.4-1.2,0.9c-0.3,0.6-0.1,1.3,0.4,1.8
		C595.5,15.9,596.4,16.2,597.2,16.3z"/>
	<path d="M596,40.2c-0.1,0.1-0.1,0.1-0.2,0.1c-0.4,0.2-0.8,0.4-1.1,0.6c-0.4,0.3-0.6,0.7-0.6,1.2c0,0.5,0.2,0.9,0.7,1.1
		c0.5,0.2,1,0.3,1.6,0.2c0.4-0.1,0.6-0.4,0.5-0.8c-0.1-0.3-0.2-0.6-0.2-1c-0.1-0.5-0.1-0.9,0.2-1.3c0.3-0.6,1-0.8,1.7-0.6
		c0.6,0.2,0.9,0.7,1,1.3c0.1,0.6,0.1,1.3-0.1,1.9c-0.1,0.1-0.1,0.3-0.1,0.5c0,0.1,0,0.3,0,0.5c-0.5,0.1-1.1,0.1-1.6,0.2
		c0,0,0,0,0-0.1c0,0,0.1-0.1,0.1-0.1c0.4-0.2,0.7-0.4,1.1-0.6c1.1-0.7,0.7-2.4-0.2-2.8c-0.5-0.2-0.9-0.2-1.4,0
		c-0.4,0.2-0.6,0.6-0.4,1.1c0.1,0.3,0.2,0.6,0.2,0.9c0.1,0.6,0,1.1-0.5,1.4c-0.5,0.3-1.2,0.3-1.7-0.1c-0.6-0.5-0.9-1.1-0.8-1.9
		c0-0.3,0.1-0.6,0.1-0.8c0-0.1,0-0.3,0-0.5c0-0.1,0-0.1,0.1-0.2c0.6-0.1,1.1-0.2,1.7-0.4C596,40.2,596,40.2,596,40.2z"/>
	<path d="M596.2,79.6c-0.2,0-0.4-0.1-0.6-0.1c-0.5-0.1-0.9-0.2-1.4-0.3c-0.2,0-0.2,0-0.1-0.2c0.1-0.1,0.1-0.2,0.1-0.3c0-1,0-2,0-3
		c0-0.1-0.1-0.2-0.1-0.4c0-0.1,0-0.1-0.1-0.2c0.7-0.1,1.4-0.3,2.1-0.4c0,0,0,0,0,0.1c0,0-0.1,0.1-0.1,0.1c-0.5,0.1-0.9,0.4-1.3,0.7
		c-0.4,0.3-0.5,0.7-0.4,1.1c0,0.1,0.1,0.1,0.1,0.2c0.1,0,0.2,0,0.2,0c1.4,0,2.8,0,4.2,0c0.4,0,0.6,0,0.7-0.6c0,0,0-0.1,0-0.1
		c0,0,0,0,0,0c0,0.7,0,1.4,0,2.2c0,0-0.1-0.1-0.1-0.1c0-0.1,0-0.1,0-0.2c-0.1-0.3-0.1-0.5-0.6-0.5c-1.4,0-2.9,0-4.3,0
		c-0.2,0-0.3,0.1-0.3,0.3c-0.1,0.5,0.2,0.8,0.5,1.1c0.4,0.3,0.8,0.5,1.2,0.6C596.1,79.5,596.1,79.5,596.2,79.6
		C596.2,79.6,596.2,79.6,596.2,79.6z"/>
	<path d="M599.6,56.4c0,0.7,0,1.4,0,2.1c0,0,0,0,0,0c0,0,0-0.1,0-0.1c0-0.1,0-0.2,0-0.3c0-0.2-0.2-0.3-0.3-0.2
		c-0.4,0.1-0.8,0.3-1.2,0.5c-0.1,0.1-0.2,0.2-0.2,0.3c0,0.5,0,1.1,0,1.6c0,0.2,0.1,0.3,0.3,0.3c0.3,0.1,0.7,0.3,1.1,0.4
		c0.1,0.1,0.3,0,0.3-0.1c0.1-0.2,0.1-0.4,0.2-0.6c0,0,0-0.1,0-0.1c0,0,0,0,0,0c0,0.6,0,1.3,0,2c0-0.1-0.1-0.1-0.1-0.1
		c0-0.5-0.3-0.8-0.7-1c-0.4-0.2-0.8-0.3-1.2-0.5c-0.9-0.3-1.8-0.6-2.6-1c-0.1,0-0.2-0.1-0.2-0.1c-0.2-0.1-0.3,0-0.4,0.2
		c0,0.1,0,0.2,0,0.3c0,0,0,0.1,0,0.1c0,0,0,0-0.1,0c0-0.1,0-0.1,0-0.2c0-0.3,0-0.6,0-0.9c0-0.1,0-0.2,0.2-0.2c1.5-0.6,3-1.1,4.6-1.7
		c0.4-0.1,0.6-0.4,0.6-0.8C599.5,56.5,599.6,56.5,599.6,56.4C599.6,56.4,599.6,56.4,599.6,56.4z M594.9,59.6c0.1,0,0.1,0.1,0.1,0.1
		c0.7,0.3,1.5,0.6,2.2,0.8c0.2,0.1,0.2,0,0.2-0.2c0-0.5,0-1,0-1.5c0-0.2-0.1-0.2-0.2-0.2c-0.7,0.3-1.5,0.5-2.2,0.8
		C595,59.5,595,59.5,594.9,59.6z"/>
	<path d="M594.2,27.6c0-0.6,0-1.3,0-1.9c0,0,0,0,0,0c0,0,0,0.1,0,0.1c0,0.5,0.3,0.7,0.7,0.7c0.9,0,1.8,0,2.6,0
		c0.5,0,0.9,0.1,1.3,0.4c0.4,0.3,0.7,0.7,0.8,1.2c0.1,0.5,0,0.9-0.1,1.4c-0.2,0.7-0.6,1.1-1.3,1.2c-0.3,0.1-0.6,0.1-0.9,0.1
		c-0.8,0-1.6,0-2.4,0c-0.1,0-0.3,0-0.4,0c-0.2,0-0.3,0.1-0.3,0.4c0,0.1,0,0.2,0,0.3c-0.1-0.1-0.1-2,0-2.2c0,0.1,0,0.1,0,0.2
		c0,0.5,0.1,0.6,0.5,0.6c1.1,0,2.1,0,3.2,0c0.7,0,1.3-0.3,1.5-1c0.3-1,0-2.1-1.4-2.3c-0.2,0-0.4-0.1-0.6-0.1c-0.8,0-1.6,0-2.4,0
		c-0.5,0-0.8,0.3-0.8,0.8C594.3,27.5,594.3,27.6,594.2,27.6C594.2,27.6,594.2,27.6,594.2,27.6z"/>
	<path d="M597.9,48c0,0,0.1,0,0.1,0c0.5,0.1,1,0.3,1.6,0.4c0.1,0,0.1,0.1,0.1,0.1c0,0.3-0.1,0.5-0.1,0.8c0,0.9,0,1.7,0,2.6
		c0,0.1,0,0.1,0,0.2c0,0,0,0-0.1-0.1c0,0,0-0.1,0-0.1c0-0.4-0.2-0.6-0.6-0.6c-1.3,0-2.6,0-3.9,0c-0.1,0-0.2,0-0.3,0
		c-0.2,0-0.3,0.2-0.3,0.4c0,0.1,0,0.2,0,0.3c0,0,0,0-0.1,0c0-0.7,0-1.4,0-2.2c0,0.1,0.1,0.1,0.1,0.1c0,0.1,0,0.2,0,0.3
		c0,0.2,0.1,0.3,0.3,0.4c0.1,0,0.2,0,0.3,0c1.3,0,2.7,0,4,0c0.5,0,0.5,0,0.5-0.5c0-0.7-0.3-1.2-0.9-1.6c-0.2-0.1-0.4-0.2-0.6-0.4
		C598,48.1,597.9,48,597.9,48C597.9,48,597.9,48,597.9,48z"/>
	<path d="M599.6,25.6c0,0,0-0.1,0-0.1c0-0.1,0-0.2-0.1-0.3c-0.1-0.2-0.2-0.3-0.3-0.3c-0.1,0-0.2,0-0.3,0c-1.3,0-2.5,0-3.8,0
		c-0.1,0-0.3,0-0.4,0c-0.2,0-0.3,0.2-0.4,0.4c0,0.1,0,0.2,0,0.3c0,0,0,0-0.1,0c0-0.7,0-1.4,0-2.1c0,0,0,0,0,0c0,0,0,0.1,0,0.1
		c0,0.1,0,0.1,0,0.2c0,0.4,0.1,0.5,0.5,0.5c1.4,0,2.9,0,4.4,0c0.3,0,0.3-0.1,0.3-0.3c0-0.2,0-0.5,0-0.7c-0.1-0.4-0.3-0.7-0.6-1
		c-0.3-0.2-0.5-0.3-0.8-0.5c0,0-0.1-0.1-0.1-0.1c0,0,0,0,0,0c0.1,0,0.1,0,0.2,0c0.5,0.1,1,0.2,1.5,0.3c0.1,0,0.1,0.1,0.1,0.2
		c0,0.2-0.1,0.5-0.1,0.7c0,0.9,0,1.8,0,2.6C599.6,25.5,599.6,25.5,599.6,25.6C599.6,25.6,599.6,25.6,599.6,25.6z"/>
	<path d="M597.9,17.3c0,0,0.1,0,0.1,0c0.5,0.1,1,0.3,1.6,0.4c0.1,0,0.1,0.1,0.1,0.2c0,0.2-0.1,0.5-0.1,0.7c0,0.9,0,1.8,0,2.6
		c0,0.1,0,0.1,0,0.2c0,0,0,0,0,0c0,0,0-0.1,0-0.1c0-0.1,0-0.2,0-0.2c-0.1-0.3-0.2-0.4-0.5-0.4c-1.4,0-2.8,0-4.2,0
		c-0.4,0-0.5,0.1-0.5,0.5c0,0.1,0,0.2,0,0.2c-0.1-0.1-0.1-1.9,0-2.2c0,0,0.1,0.1,0.1,0.1c0,0.1,0,0.1,0,0.2c0,0.4,0.1,0.5,0.5,0.5
		c0.3,0,0.6,0,0.8,0c1.2,0,2.3,0,3.5,0c0.1,0,0.1,0,0.2,0c0.1,0,0.2-0.1,0.2-0.2c0.1-0.8-0.2-1.5-0.9-2c-0.2-0.1-0.4-0.2-0.6-0.3
		C598,17.4,597.9,17.4,597.9,17.3C597.9,17.3,597.9,17.3,597.9,17.3z"/>
	<path d="M597.9,52.2c0,0,0.1,0,0.1,0c0.5,0.1,1,0.3,1.6,0.4c0.1,0,0.1,0.1,0.1,0.2c0,0.2-0.1,0.4-0.1,0.6c0,0.9,0,1.8,0,2.7
		c0,0.1,0,0.1,0,0.2c0,0,0,0,0,0c0,0,0,0-0.1-0.1c0-0.1,0-0.1,0-0.2c-0.1-0.3-0.2-0.5-0.6-0.5c-0.8,0-1.5,0-2.3,0
		c-0.6,0-1.3,0-1.9,0c-0.3,0-0.4,0.1-0.4,0.4c0,0.1,0,0.2,0,0.3c0,0,0,0-0.1,0c0-0.7,0-1.4,0-2.1c0,0,0,0,0,0c0,0.1,0,0.1,0,0.2
		c0,0.4,0,0.6,0.6,0.6c1.4,0,2.8,0,4.1,0c0.1,0,0.1,0,0.2,0c0.2,0,0.3-0.1,0.3-0.3c0-0.4,0-0.8-0.2-1.1c-0.2-0.3-0.4-0.5-0.7-0.7
		c-0.2-0.1-0.4-0.2-0.6-0.3C598,52.3,597.9,52.3,597.9,52.2C597.9,52.3,597.9,52.3,597.9,52.2z"/>
	<path d="M596,34.4c-0.1,0-0.1,0.1-0.2,0.1c-0.4,0.2-0.8,0.4-1.2,0.8c-0.4,0.4-0.5,0.8-0.5,1.3c0,0.4,0.2,0.7,0.5,0.9
		c0.6,0.5,1.2,0.7,2,0.8c0.4,0.1,0.8,0.1,1.2,0c0.9-0.2,1.4-0.8,1.6-1.6c0.2-1-0.2-2-1.3-2.4c-0.1,0-0.1-0.1-0.1-0.1
		c0,0,0.1,0,0.1,0c0.9,0.3,1.5,1.1,1.5,2c0.1,1.5-1,2.5-2.3,2.7c-0.6,0.1-1.1,0.1-1.7-0.1c-1.1-0.4-1.8-1.5-1.6-2.6
		c0-0.3,0.1-0.5,0.1-0.8c0-0.2,0-0.4,0-0.7C594.7,34.7,595.4,34.5,596,34.4C596,34.4,596,34.4,596,34.4z"/>
	<path d="M594.2,74.4c0-0.7,0-1.4,0-2.1c0,0,0,0,0,0c0,0,0,0.1,0,0.1c0,0,0,0.1,0,0.1c0,0.3,0.1,0.5,0.5,0.5c1.3,0,2.7,0,4,0
		c0.4,0,0.6-0.1,0.7-0.6c0,0,0-0.1,0-0.1c0,0,0,0,0.1,0c0,0.7,0,1.4,0,2.1c0,0,0,0,0,0c0,0,0-0.1,0-0.1c0-0.1,0-0.2,0-0.2
		c-0.1-0.3-0.2-0.4-0.5-0.4c0,0,0,0,0,0c-1.4,0-2.7,0-4.1,0c0,0-0.1,0-0.1,0c-0.4,0-0.5,0.1-0.5,0.5
		C594.3,74.2,594.3,74.3,594.2,74.4C594.2,74.4,594.2,74.4,594.2,74.4z"/>
	<path d="M594.2,33.9c0-0.7,0-1.4,0-2.2c0,0.1,0.1,0.1,0.1,0.1c0,0.1,0,0.1,0,0.2c0,0.4,0.1,0.5,0.5,0.5c1.4,0,2.8,0,4.2,0
		c0.3,0,0.5-0.2,0.5-0.6c0-0.1,0-0.1,0-0.2c0,0,0,0,0,0c0,0.7,0,1.4,0,2.2c0,0-0.1-0.1-0.1-0.1c0,0,0-0.1,0-0.1
		c0-0.5-0.2-0.6-0.7-0.6c-1.3,0-2.6,0-3.9,0c-0.1,0-0.2,0-0.4,0c-0.2,0-0.3,0.2-0.3,0.4C594.3,33.6,594.3,33.7,594.2,33.9
		C594.3,33.8,594.3,33.8,594.2,33.9C594.2,33.9,594.2,33.9,594.2,33.9z"/>
	<path d="M597.6,46.2c0,0.3,0,0.7,0,1c0,0,0,0.1-0.1,0.1c0,0-0.1-0.1-0.1-0.1c0-0.7,0-1.4,0-2.1c0-0.1,0-0.1,0.1-0.1
		c0,0.1,0.1,0.1,0.1,0.1C597.6,45.5,597.6,45.9,597.6,46.2z"/>
</g>
</svg>
