<?xml version="1.0" encoding="utf-8"?>
<!-- Generator: Adobe Illustrator 25.2.0, SVG Export Plug-In . SVG Version: 6.00 Build 0)  -->
<svg version="1.1" id="Layer_1" xmlns="http://www.w3.org/2000/svg" xmlns:xlink="http://www.w3.org/1999/xlink" x="0px" y="0px"
	 viewBox="0 0 600.3 101.1" style="enable-background:new 0 0 600.3 101.1;" xml:space="preserve">
<g>
	<path d="M168.5,3c0.7-0.1,1.4-0.4,2.2-0.4c6.4,0,12.8,0.1,19.2-0.1c1.9,0,2.6,0.8,3.3,2.3c8.8,20.6,17.6,41.1,26.5,61.7
		c1.2,2.7,2.7,5.2,4,7.8c0.3,0,0.6,0,1,0c0.8-1.4,1.9-2.8,2.5-4.4c4.4-10.4,8.7-20.9,13.1-31.3c4.7-11.3,9.4-22.6,14-33.9
		c0.7-1.7,1.5-2.2,3.3-2.2c6,0.1,12,0,18,0c0.8,0,1.6,0.1,2.5,0.7c-0.4,0.3-0.7,0.6-1.2,0.8c-0.4,0.1-0.8,0.1-1.2,0.1
		c-8.7-0.4-9.2,2.9-9.3,9.2c-0.2,11.1-0.1,22.2-0.1,33.2c0,9.7,0,19.3,0,29c0,1.5,0.2,3,0.3,4.5c0.2,2.7,1.7,4.5,4.1,5.4
		c1.8,0.6,3.7,0.9,5.6,1.3c0.6,0.1,1.2,0.3,1.8,0.5c0,0.2-0.1,0.5-0.1,0.7c-11.4,0-22.9,0-34.3,0c-0.1-0.2-0.1-0.3-0.2-0.5
		c0.5-0.2,0.9-0.6,1.4-0.7c1.3-0.3,2.7-0.3,3.9-0.6c4.4-1.1,6.4-3.5,6.4-8c0-20.8,0-41.7,0-62.5c0-1.4-0.3-2.8-0.9-4.4
		c-0.4,0.7-0.9,1.4-1.3,2.2c-8.5,20.4-16.9,40.9-25.3,61.3c-1.4,3.5-1.5,7.1,0.1,10.7c0.4,0.8,0.6,1.7,1.1,2.7
		c-3.5,0-6.7,0.1-9.8-0.1c-0.8-0.1-1.9-1.2-2.2-2c-8.4-19.6-16.8-39.2-25.1-58.7c-1.9-4.5-4-9-6-13.5c-0.4-0.9-0.9-1.7-2-2.5
		c-0.2,1.1-0.5,2.1-0.5,3.2c0,21.3,0,42.7,0,64c0,3.5,1.4,5.5,4.7,6.5c2.9,0.8,6,1.1,9.1,1.7c0.8,0.1,1.5,0.4,2.2,0.6
		c0,0.2-0.1,0.4-0.1,0.7c-10.1,0-20.2,0-30.3,0c-0.1-0.2-0.1-0.4-0.2-0.6c0.6-0.2,1.3-0.5,1.9-0.6c6.5-0.4,9.6-3.3,10.3-9.9
		c0.3-2.7,0.5-5.5,0.5-8.2c0-17.9,0-35.8,0-53.7c0-1.2,0-2.3-0.2-3.5c-0.7-4.8-3.4-7.1-8.3-7.2c-1.4,0-2.8-0.2-4.2-0.3
		C168.5,3.7,168.5,3.3,168.5,3z"/>
	<path d="M358.8,2.9c0.7-0.1,1.4-0.3,2-0.3c12.3,0.1,24.7,0,37,0.3c6.4,0.1,12.4,2,17.2,6.4c11.4,10.3,7.1,29.7-7.7,34.4
		c-1.3,0.4-2.7,0.8-4.4,1.3c1.9,1,3.5,1.7,5,2.7c4.8,3.3,8.1,8,10.4,13.1c3.4,7.5,6.3,15.2,9.7,22.7c1.6,3.6,3.4,7,5.4,10.4
		c1.6,2.8,3.6,5.2,7,6c0.2,0,0.2,0.4,0.6,1.1c-1.1,0-1.9,0.1-2.7,0c-5.2-0.7-9.4-3.3-12.4-7.3c-3.7-5.1-7.3-10.3-10.3-15.9
		c-3.5-6.6-6.8-13.4-9.5-20.4c-2.9-7.7-8.3-11.1-16.2-11c-0.8,0-1.7-0.5-2.5-0.8c0.1-0.3,0.2-0.6,0.2-0.9c2.3-0.2,4.6-0.2,6.9-0.5
		c9.2-1.3,15.4-7.3,16.9-16.5c1.1-6.7,0.1-13-4.1-18.4c-3.8-4.9-9.3-5.5-14.9-5.3C382.9,4.3,381,6.4,381,15.9c0,20.2,0,40.3,0,60.5
		c0,7.1,2.3,9.5,9.4,10.2c0.8,0.1,1.5,0.3,2.3,0.5c0,0.2-0.1,0.5-0.1,0.7c-11.3,0-22.5,0-33.8,0c-0.1-0.2-0.1-0.4-0.2-0.6
		c0.6-0.2,1.1-0.5,1.7-0.6c1.7-0.4,3.4-0.6,5.1-1.1c2.9-0.9,4.6-2.8,4.8-6c0.1-1.2,0.2-2.5,0.2-3.7c0-20.1,0-40.2,0-60.2
		c0-2-0.1-4-0.4-6c-0.4-3.5-2.4-5.3-5.9-5.5c-1.8-0.1-3.6-0.2-5.5-0.2C358.7,3.7,358.7,3.3,358.8,2.9z"/>
	<path d="M512,46.7c-0.4,12.4-3.6,23.7-12.6,32.7c-9.4,9.4-20.9,12.2-33.6,9.5C447.5,85,437.5,72.5,433.3,55
		c-2.3-9.6-1.9-19.3,1.3-28.8c5.6-16.7,22.5-27.1,40-25.3c18.9,2,33,17.1,36.1,35.4C511.3,39.8,511.6,43.2,512,46.7z M440.9,48.8
		c-0.2,12.7,2.6,20.5,7.8,27.4c10.3,13.4,26.6,14.1,38.1,1.6c4.8-5.2,8.5-11.1,11-17.7c4.4-11.3,6.7-22.8,3.5-34.9
		c-2.2-8.1-6.2-15-13.8-19c-9.1-4.8-20.9-2.5-29.1,5.5C446.8,22.9,441.6,37,440.9,48.8z"/>
	<path d="M335,26.3c0,12.8,0,25.6,0,38.4c-0.2,0.1-0.3,0.2-0.5,0.2c-0.3-0.6-0.7-1.2-1-1.8c-1.2-3.2-2.1-6.5-3.5-9.6
		c-1.9-4.2-5.2-6.6-10-6.8c-3-0.1-6-0.2-9,0c-3.1,0.2-4.8,1.6-4.9,4.6c-0.3,9.6-0.5,19.3-0.4,29c0,3.8,1.9,5.7,5.5,5.9
		c7.3,0.4,14.7,0.7,21.8-1.4c6.6-1.9,11.4-6.1,14.8-11.9c1.9-3.2,3.5-6.6,5.3-9.9c0.4-0.7,1-1.2,1.5-1.8c0.2,0.1,0.5,0.3,0.7,0.4
		c-0.3,1.1-0.6,2.2-0.9,3.2c-2.1,7.6-4.2,15.2-6.1,22.9c-0.5,2-1.3,2.3-3.3,1.9c-2.8-0.7-5.7-1-8.6-1.1c-16.7-0.1-33.3-0.1-50-0.1
		c-1,0-1.9,0-2.9,0c-0.1-0.2-0.1-0.4-0.2-0.7c0.4-0.3,0.8-0.7,1.2-0.7c1.1-0.2,2.3-0.3,3.4-0.5c5.5-1.2,7.1-3.2,7.1-8.8
		c0.1-4.2,0-8.5,0-12.7c0-16.3,0-32.7,0-49c0-1.9-0.1-3.8-0.2-5.7c-0.3-3.7-2.4-5.6-6.2-5.8c-1.8-0.1-3.5-0.2-5.3-0.4
		c0-0.3,0-0.7,0-1c1-0.1,2-0.3,3-0.3c15.2-0.1,30.5,0,45.7-0.2c2.6,0,5.3-1.1,7.9-1.9c1.2-0.4,2.1-0.6,2.5,0.9
		c2.3,8.4,4.6,16.8,6.8,25.3c0.1,0.3,0,0.6-0.1,1.7c-0.9-1.2-1.4-1.7-1.8-2.4c-2-3.5-3.8-7.2-6-10.7c-4.6-7.4-11-11.6-20-11.3
		c-3.2,0.1-6.5,0.1-9.7,0.2c-3.1,0.1-5,1.7-5.6,4.7c-0.3,2-0.5,4-0.5,6c0.1,8,0.1,16,0.4,24c0.1,3.9,1.3,5.1,5.1,5.3
		c3.7,0.3,7.5,0,11.2-0.4c3.5-0.4,5.9-2.8,7.3-5.8c1.5-3.1,2.5-6.5,3.7-9.8c0.3-0.7,0.5-1.5,0.7-2.2C334.5,26.2,334.8,26.2,335,26.3
		z"/>
	<path d="M527.1,14c-0.2,1.4-0.5,2.7-0.5,4.1c0,20.1-0.1,40.2,0,60.2c0,3.8,1.4,5.8,5,6.8c2.9,0.8,5.9,1.1,8.8,1.6
		c0.7,0.1,1.4,0.2,2.1,0.4c0,0.3,0,0.5-0.1,0.8c-10.1,0-20.2,0-30.3,0c-0.1-0.1-0.1-0.2-0.2-0.4c0.6-0.2,1.2-0.7,1.8-0.7
		c7.7,0,10.3-4.6,10.6-10.6c0.4-9.1,0.4-18.1,0.4-27.2c0.1-11.2,0-22.5,0-33.7c0-1.2-0.1-2.5-0.2-3.7c-0.6-4.7-3.4-7.1-8.2-7.3
		c-1.4,0-2.8-0.1-4.3-0.2c0-0.3,0-0.6-0.1-0.9c0.7-0.2,1.4-0.5,2-0.5c6.2,0,12.3-0.1,18.5,0.1c1,0,2.3,1.1,3,2
		c14,20.6,28,41.2,42,61.8c1.5,2.2,3.1,4.4,4.7,6.5c0.6,0.7,1.4,1.3,2.4,2.3c0.3-1.3,0.7-2.1,0.7-2.8c0.1-19.1,0.1-38.1,0.2-57.2
		c0-6.5-4.3-10.7-11.6-11c-1.4,0-2.9-0.2-4.3-0.3c0-0.3,0-0.6,0.1-1c10.1,0,20.3,0,30.4,0c0.1,0.2,0.1,0.4,0.2,0.7
		c-0.7,0.2-1.5,0.5-2.2,0.6c-6.9,0.4-10.3,3.8-10.3,10.7c0,20.5-0.1,41,0.1,61.5c0,2.8,1.4,5.7,2.3,8.5c0.3,1,1.1,1.9,2,3.3
		c-4.3,0-8.2,0.1-12.1-0.1c-0.7,0-1.6-1-2.1-1.8c-15-22-29.9-44.1-44.8-66.2c-1.5-2.2-3.3-4.3-4.9-6.5
		C527.7,13.8,527.4,13.9,527.1,14z"/>
	<path d="M167.4,88.1c-11.2,0-22.5,0-33.7,0c-0.1-0.2-0.1-0.3-0.2-0.5c0.5-0.2,1-0.6,1.6-0.7c1.5-0.2,3-0.2,4.4-0.5
		c2.9-0.6,4.3-2.5,3.3-5.3c-2.3-6.4-4.8-12.8-7.3-19.1c-0.9-2.2-2.8-3.6-5-3.6c-8.6-0.2-17.3-0.2-25.9-0.1c-2.7,0-4.6,1.5-5.5,4
		c-2.3,5.5-4.4,11.1-6.6,16.7c-0.8,2-0.3,4.1,1.7,4.9c3,1.3,6.2,2.1,9.4,3c0.7,0.2,1.4,0.3,2.1,0.5c0,0.2-0.1,0.5-0.1,0.7
		c-10.1,0-20.3,0-31.2,0c1.1-0.6,1.6-1.1,2.1-1.1c7.1-0.1,11.8-4.2,14.5-10.2c3.4-7.7,6.2-15.8,9.2-23.7
		c4.8-12.7,9.4-25.4,14.2-38.1c0.3-0.8,0.6-1.6,0.8-2.4c1.8-5.6,0.1-7.9-5.8-8.2c-1.4-0.1-2.9-0.2-4.3-0.3c0-0.4,0-0.7,0-1.1
		c0.7-0.1,1.4-0.3,2.2-0.3c5.2,0,10.3,0.1,15.5-0.1c1.9,0,2.6,0.7,3.2,2.3c8.8,24,17.8,48,26.5,72.1c2.3,6.4,6.7,9.2,13,9.8
		c0.7,0.1,1.4,0.4,2.2,0.6C167.5,87.6,167.5,87.8,167.4,88.1z M117.6,14.1c-0.8,1-1.2,1.4-1.4,1.9c-4.5,12-9,23.9-13.4,36
		c-0.8,2.3,0,3.4,2.4,3.5c7.8,0.1,15.6,0.2,23.5,0c3.5-0.1,4.3-1.3,3-4.7c-4-11-8-22-12.1-33C119.2,16.6,118.5,15.6,117.6,14.1z"/>
	<path d="M76.5,64c-0.1,0.5-0.1,1.1-0.3,1.6c-4.5,14.3-17.7,23.8-32.6,24.2c-19.4,0.5-35.2-12-40.8-30.2c-4-13-3.8-25.9,2.2-38.3
		C11.8,7.3,28.2-1.3,43.5,1c4.2,0.6,8.4,1.5,12.6,1.7c3.3,0.2,6.6-0.5,10.5-0.8c2.3,9.3,4.8,19.2,7.2,29.2c-0.3,0.1-0.6,0.3-0.9,0.4
		c-0.5-0.7-1.1-1.4-1.5-2.2c-3.5-6.9-7.1-13.7-12.8-19.2c-5.5-5.3-12-7.9-19.6-7.8c-6.7,0.1-11.6,3.6-15.6,8.6
		C16.8,19,13.1,28.6,11.1,38.8C9.6,46.2,8.8,53.6,10.5,61c2.8,12.5,13.4,23,26.2,25.2c15.5,2.7,31.7-4.1,38-20.5
		c0.3-0.7,0.9-1.4,1.3-2.1C76.1,63.8,76.3,63.9,76.5,64z"/>
</g>
<g>
	<path d="M594.2,66.7c0,0,0-0.1,0-0.1c0-0.8,0-1.7,0-2.5c0-0.2,0-0.4,0.1-0.5c0.2-0.5,0.7-0.8,1.3-0.8c0.6,0,1,0.3,1.1,0.8
		c0,0.1,0.1,0.2,0.1,0.3c0-0.1,0-0.2,0.1-0.2c0.1-0.2,0.2-0.5,0.3-0.7c0.5-0.8,1.9-0.8,2.3,0.2c0.1,0.2,0.2,0.5,0.2,0.7
		c0,0.9,0,1.8,0,2.7c0,0.1,0,0.1,0,0.2c-0.1-0.1-0.1-0.1-0.1-0.1c0,0,0-0.1,0-0.1c0-0.5-0.2-0.6-0.7-0.6c-1.3,0-2.6,0-3.9,0
		c-0.1,0-0.2,0-0.3,0c-0.2,0-0.3,0.2-0.3,0.4C594.3,66.5,594.3,66.6,594.2,66.7C594.3,66.7,594.3,66.7,594.2,66.7z M596.9,65.3
		c0.7,0,1.4,0,2.1,0c0.3,0,0.4-0.1,0.5-0.4c0-0.3,0-0.7,0-1c0-0.3-0.2-0.5-0.5-0.7c-0.3-0.2-0.6-0.2-0.9-0.2c-0.5,0-1.1,0.3-1.2,0.9
		c0,0.2,0,0.5-0.1,0.7c0,0,0,0.1-0.1,0.1c0,0-0.1-0.1-0.1-0.1c0-0.1,0-0.2,0-0.3c0-0.4-0.2-0.7-0.5-0.9c-0.5-0.2-0.9-0.2-1.4-0.1
		c-0.3,0.1-0.4,0.3-0.5,0.6c0,0.3,0,0.6,0,0.9c0,0.3,0.1,0.4,0.4,0.4c0.1,0,0.1,0,0.2,0C595.6,65.3,596.3,65.3,596.9,65.3z"/>
	<path d="M594.2,71.9c0,0,0-0.1,0-0.1c0-0.8,0-1.6,0-2.5c0-1.1,0.7-1.9,1.7-2.2c0.9-0.2,1.8-0.2,2.6,0.3c0.7,0.4,1,1,1.1,1.8
		c0,0.9,0,1.7,0,2.6c0,0,0,0.1,0,0.1c0,0,0-0.1,0-0.1c-0.1-0.4-0.2-0.5-0.6-0.5c-1.3,0-2.7,0-4,0c0,0-0.1,0-0.1,0
		c-0.4,0-0.4,0.1-0.5,0.5C594.3,71.8,594.3,71.8,594.2,71.9C594.3,71.9,594.3,71.9,594.2,71.9z M594.3,69.7
		C594.3,69.7,594.3,69.7,594.3,69.7c0,0.2,0,0.3,0,0.5c0,0.3,0.1,0.4,0.4,0.4c0.8,0,1.5,0,2.3,0c0.7,0,1.4,0,2.1,0
		c0.2,0,0.4-0.1,0.4-0.3c0-0.4,0-0.7,0-1.1c0-0.5-0.4-0.8-0.8-1c-0.4-0.3-0.9-0.4-1.4-0.4c-0.6-0.1-1.2-0.1-1.9,0.1
		c-0.5,0.2-0.9,0.5-1,1C594.3,69.1,594.3,69.4,594.3,69.7z"/>
	<path d="M597,11.9c0.7,0,1.3,0.2,1.9,0.6c0.8,0.6,1,1.4,0.8,2.3c-0.2,1-0.9,1.6-1.8,2c-0.7,0.2-1.4,0.3-2.1,0
		c-1.1-0.3-1.8-1.4-1.6-2.6c0.1-1.2,1.1-2.1,2.2-2.3C596.5,11.9,596.8,11.9,597,11.9z M597.2,16.4c0.8,0,1.3-0.2,1.7-0.5
		c0.9-0.7,0.9-1.7,0.1-2.4c-0.3-0.3-0.7-0.6-1.1-0.7c-0.7-0.3-1.4-0.4-2.2-0.2c-0.5,0.1-1,0.4-1.2,0.9c-0.3,0.6-0.1,1.3,0.4,1.8
		C595.5,16,596.4,16.3,597.2,16.4z"/>
	<path d="M596.1,40.3c-0.1,0.1-0.1,0.1-0.2,0.1c-0.4,0.2-0.8,0.4-1.1,0.6c-0.4,0.3-0.6,0.7-0.6,1.2c0,0.5,0.2,0.9,0.7,1.1
		c0.5,0.2,1,0.3,1.6,0.2c0.4-0.1,0.6-0.4,0.5-0.8c-0.1-0.3-0.2-0.6-0.2-1c-0.1-0.5-0.1-0.9,0.2-1.3c0.3-0.6,1-0.8,1.7-0.6
		c0.6,0.2,0.9,0.7,1,1.3c0.1,0.6,0.1,1.3-0.1,1.9c-0.1,0.1-0.1,0.3-0.1,0.5c0,0.1,0,0.3,0,0.5c-0.5,0.1-1.1,0.1-1.6,0.2
		c0,0,0,0,0-0.1c0,0,0.1-0.1,0.1-0.1c0.4-0.2,0.7-0.4,1.1-0.6c1.1-0.7,0.7-2.4-0.2-2.8c-0.5-0.2-0.9-0.2-1.4,0
		c-0.4,0.2-0.6,0.6-0.4,1.1c0.1,0.3,0.2,0.6,0.2,0.9c0.1,0.6,0,1.1-0.5,1.4c-0.5,0.3-1.2,0.3-1.7-0.1c-0.6-0.5-0.9-1.1-0.8-1.9
		c0-0.3,0.1-0.6,0.1-0.8c0-0.1,0-0.3,0-0.5c0-0.1,0-0.1,0.1-0.2c0.6-0.1,1.1-0.2,1.7-0.4C596,40.3,596,40.3,596.1,40.3z"/>
	<path d="M596.2,79.6c-0.2,0-0.4-0.1-0.6-0.1c-0.5-0.1-0.9-0.2-1.4-0.3c-0.2,0-0.2,0-0.1-0.2c0.1-0.1,0.1-0.2,0.1-0.3c0-1,0-2,0-3
		c0-0.1-0.1-0.2-0.1-0.4c0-0.1,0-0.1-0.1-0.2c0.7-0.1,1.4-0.3,2.1-0.4c0,0,0,0,0,0.1c0,0-0.1,0.1-0.1,0.1c-0.5,0.1-0.9,0.4-1.3,0.7
		c-0.4,0.3-0.5,0.7-0.4,1.1c0,0.1,0.1,0.1,0.1,0.2c0.1,0,0.2,0,0.2,0c1.4,0,2.8,0,4.2,0c0.4,0,0.6,0,0.7-0.6c0,0,0-0.1,0-0.1
		c0,0,0,0,0,0c0,0.7,0,1.4,0,2.2c0,0-0.1-0.1-0.1-0.1c0-0.1,0-0.1,0-0.2c-0.1-0.3-0.1-0.5-0.6-0.5c-1.4,0-2.9,0-4.3,0
		c-0.2,0-0.3,0.1-0.3,0.3c-0.1,0.5,0.2,0.8,0.5,1.1c0.4,0.3,0.8,0.5,1.2,0.6C596.1,79.5,596.2,79.6,596.2,79.6
		C596.2,79.6,596.2,79.6,596.2,79.6z"/>
	<path d="M599.7,56.5c0,0.7,0,1.4,0,2.1c0,0,0,0,0,0c0,0,0-0.1,0-0.1c0-0.1,0-0.2,0-0.3c0-0.2-0.2-0.3-0.3-0.2
		c-0.4,0.1-0.8,0.3-1.2,0.5c-0.1,0.1-0.2,0.2-0.2,0.3c0,0.5,0,1.1,0,1.6c0,0.2,0.1,0.3,0.3,0.3c0.3,0.1,0.7,0.3,1.1,0.4
		c0.1,0.1,0.3,0,0.3-0.1c0.1-0.2,0.1-0.4,0.2-0.6c0,0,0-0.1,0-0.1c0,0,0,0,0,0c0,0.6,0,1.3,0,2c0-0.1-0.1-0.1-0.1-0.1
		c0-0.5-0.3-0.8-0.7-1c-0.4-0.2-0.8-0.3-1.2-0.5c-0.9-0.3-1.8-0.6-2.6-1c-0.1,0-0.2-0.1-0.2-0.1c-0.2-0.1-0.3,0-0.4,0.2
		c0,0.1,0,0.2,0,0.3c0,0,0,0.1,0,0.1c0,0,0,0-0.1,0c0-0.1,0-0.1,0-0.2c0-0.3,0-0.6,0-0.9c0-0.1,0-0.2,0.2-0.2c1.5-0.6,3-1.1,4.6-1.7
		c0.4-0.1,0.6-0.4,0.6-0.8C599.6,56.5,599.6,56.5,599.7,56.5C599.6,56.5,599.6,56.5,599.7,56.5z M595,59.6c0.1,0,0.1,0.1,0.1,0.1
		c0.7,0.3,1.5,0.6,2.2,0.8c0.2,0.1,0.2,0,0.2-0.2c0-0.5,0-1,0-1.5c0-0.2-0.1-0.2-0.2-0.2c-0.7,0.3-1.5,0.5-2.2,0.8
		C595.1,59.5,595,59.6,595,59.6z"/>
	<path d="M594.2,27.7c0-0.6,0-1.3,0-1.9c0,0,0,0,0,0c0,0,0,0.1,0,0.1c0,0.5,0.3,0.7,0.7,0.7c0.9,0,1.8,0,2.6,0
		c0.5,0,0.9,0.1,1.3,0.4c0.4,0.3,0.7,0.7,0.8,1.2c0.1,0.5,0,0.9-0.1,1.4c-0.2,0.7-0.6,1.1-1.3,1.2c-0.3,0.1-0.6,0.1-0.9,0.1
		c-0.8,0-1.6,0-2.4,0c-0.1,0-0.3,0-0.4,0c-0.2,0-0.3,0.1-0.3,0.4c0,0.1,0,0.2,0,0.3c-0.1-0.1-0.1-2,0-2.2c0,0.1,0,0.1,0,0.2
		c0,0.5,0.1,0.6,0.5,0.6c1.1,0,2.1,0,3.2,0c0.7,0,1.2-0.3,1.5-1c0.3-1,0-2.1-1.4-2.3c-0.2,0-0.4-0.1-0.6-0.1c-0.8,0-1.6,0-2.4,0
		c-0.5,0-0.8,0.3-0.8,0.8C594.3,27.6,594.3,27.7,594.2,27.7C594.3,27.7,594.3,27.7,594.2,27.7z"/>
	<path d="M598,48c0,0,0.1,0,0.1,0c0.5,0.1,1,0.3,1.6,0.4c0.1,0,0.1,0.1,0.1,0.1c0,0.3-0.1,0.5-0.1,0.8c0,0.9,0,1.7,0,2.6
		c0,0.1,0,0.1,0,0.2c0,0,0,0-0.1-0.1c0,0,0-0.1,0-0.1c0-0.4-0.2-0.6-0.6-0.6c-1.3,0-2.6,0-3.9,0c-0.1,0-0.2,0-0.3,0
		c-0.2,0-0.3,0.2-0.3,0.4c0,0.1,0,0.2,0,0.3c0,0,0,0-0.1,0c0-0.7,0-1.4,0-2.2c0,0.1,0.1,0.1,0.1,0.1c0,0.1,0,0.2,0,0.3
		c0,0.2,0.1,0.3,0.3,0.4c0.1,0,0.2,0,0.3,0c1.3,0,2.7,0,4,0c0.5,0,0.5,0,0.5-0.5c0-0.7-0.3-1.2-0.9-1.6c-0.2-0.1-0.4-0.2-0.6-0.4
		C598,48.1,598,48.1,598,48C597.9,48.1,597.9,48.1,598,48z"/>
	<path d="M599.6,25.7c0,0,0-0.1,0-0.1c0-0.1,0-0.2-0.1-0.3c-0.1-0.2-0.2-0.3-0.3-0.3c-0.1,0-0.2,0-0.3,0c-1.3,0-2.5,0-3.8,0
		c-0.1,0-0.3,0-0.4,0c-0.2,0-0.3,0.2-0.4,0.4c0,0.1,0,0.2,0,0.3c0,0,0,0-0.1,0c0-0.7,0-1.4,0-2.1c0,0,0,0,0,0c0,0,0,0.1,0,0.1
		c0,0.1,0,0.1,0,0.2c0,0.4,0.1,0.5,0.5,0.5c1.4,0,2.9,0,4.3,0c0.3,0,0.3-0.1,0.3-0.3c0-0.2,0-0.5,0-0.7c-0.1-0.4-0.3-0.7-0.6-1
		c-0.3-0.2-0.5-0.3-0.8-0.5c0,0-0.1-0.1-0.1-0.1c0,0,0,0,0,0c0.1,0,0.1,0,0.2,0c0.5,0.1,1,0.2,1.5,0.3c0.1,0,0.1,0.1,0.1,0.2
		c0,0.2-0.1,0.5-0.1,0.7c0,0.9,0,1.8,0,2.6C599.6,25.6,599.6,25.6,599.6,25.7C599.6,25.7,599.6,25.7,599.6,25.7z"/>
	<path d="M598,17.4c0,0,0.1,0,0.1,0c0.5,0.1,1,0.3,1.6,0.4c0.1,0,0.1,0.1,0.1,0.2c0,0.2-0.1,0.5-0.1,0.7c0,0.9,0,1.8,0,2.6
		c0,0.1,0,0.1,0,0.2c0,0,0,0,0,0c0,0,0-0.1,0-0.1c0-0.1,0-0.2,0-0.2c-0.1-0.3-0.2-0.4-0.5-0.4c-1.4,0-2.8,0-4.2,0
		c-0.4,0-0.5,0.1-0.5,0.5c0,0.1,0,0.2,0,0.2c-0.1-0.1-0.1-1.9,0-2.2c0,0,0.1,0.1,0.1,0.1c0,0.1,0,0.1,0,0.2c0,0.4,0.1,0.5,0.5,0.5
		c0.3,0,0.6,0,0.8,0c1.2,0,2.3,0,3.5,0c0.1,0,0.1,0,0.2,0c0.1,0,0.2-0.1,0.2-0.2c0.1-0.8-0.2-1.5-0.9-2c-0.2-0.1-0.4-0.2-0.6-0.3
		C598,17.5,598,17.5,598,17.4C597.9,17.4,597.9,17.4,598,17.4z"/>
	<path d="M598,52.3c0,0,0.1,0,0.1,0c0.5,0.1,1,0.3,1.6,0.4c0.1,0,0.1,0.1,0.1,0.2c0,0.2-0.1,0.4-0.1,0.6c0,0.9,0,1.8,0,2.7
		c0,0.1,0,0.1,0,0.2c0,0,0,0,0,0c0,0,0,0-0.1-0.1c0-0.1,0-0.1,0-0.2c-0.1-0.3-0.2-0.5-0.6-0.5c-0.8,0-1.5,0-2.3,0
		c-0.6,0-1.3,0-1.9,0c-0.3,0-0.4,0.1-0.4,0.4c0,0.1,0,0.2,0,0.3c0,0,0,0-0.1,0c0-0.7,0-1.4,0-2.1c0,0,0,0,0,0c0,0.1,0,0.1,0,0.2
		c0,0.4,0,0.6,0.6,0.6c1.4,0,2.8,0,4.1,0c0.1,0,0.1,0,0.2,0c0.2,0,0.3-0.1,0.3-0.3c0-0.4,0-0.8-0.2-1.1c-0.2-0.3-0.4-0.5-0.7-0.7
		c-0.2-0.1-0.4-0.2-0.6-0.3C598,52.4,598,52.4,598,52.3C597.9,52.3,597.9,52.3,598,52.3z"/>
	<path d="M596.1,34.5c-0.1,0-0.1,0.1-0.2,0.1c-0.4,0.2-0.8,0.4-1.2,0.8c-0.4,0.4-0.5,0.8-0.5,1.3c0,0.4,0.2,0.7,0.5,0.9
		c0.6,0.5,1.2,0.7,2,0.8c0.4,0.1,0.8,0.1,1.2,0c0.9-0.2,1.4-0.8,1.6-1.6c0.2-1-0.2-2-1.3-2.4c-0.1,0-0.1-0.1-0.1-0.1
		c0,0,0.1,0,0.1,0c0.9,0.3,1.5,1.1,1.5,2c0.1,1.5-1,2.5-2.3,2.7c-0.6,0.1-1.1,0.1-1.7-0.1c-1.1-0.4-1.8-1.5-1.6-2.6
		c0-0.3,0.1-0.5,0.1-0.8c0-0.2,0-0.4,0-0.7C594.8,34.8,595.4,34.6,596.1,34.5C596,34.5,596,34.5,596.1,34.5z"/>
	<path d="M594.2,74.4c0-0.7,0-1.4,0-2.1c0,0,0,0,0,0c0,0,0,0.1,0,0.1c0,0,0,0.1,0,0.1c0,0.3,0.1,0.5,0.5,0.5c1.3,0,2.7,0,4,0
		c0.4,0,0.6-0.1,0.7-0.6c0,0,0-0.1,0-0.1c0,0,0,0,0.1,0c0,0.7,0,1.4,0,2.1c0,0,0,0,0,0c0,0,0-0.1,0-0.1c0-0.1,0-0.2,0-0.2
		c-0.1-0.3-0.2-0.4-0.5-0.4c0,0,0,0,0,0c-1.4,0-2.7,0-4.1,0c0,0-0.1,0-0.1,0c-0.4,0-0.5,0.1-0.5,0.5
		C594.3,74.2,594.3,74.3,594.2,74.4C594.3,74.4,594.3,74.4,594.2,74.4z"/>
	<path d="M594.2,33.9c0-0.7,0-1.4,0-2.2c0,0.1,0.1,0.1,0.1,0.1c0,0.1,0,0.1,0,0.2c0,0.4,0.1,0.5,0.5,0.5c1.4,0,2.8,0,4.2,0
		c0.3,0,0.5-0.2,0.5-0.6c0-0.1,0-0.1,0-0.2c0,0,0,0,0,0c0,0.7,0,1.4,0,2.2c0,0-0.1-0.1-0.1-0.1c0,0,0-0.1,0-0.1
		c0-0.5-0.2-0.6-0.7-0.6c-1.3,0-2.6,0-3.9,0c-0.1,0-0.2,0-0.4,0c-0.2,0-0.3,0.2-0.3,0.4C594.3,33.7,594.3,33.8,594.2,33.9
		C594.3,33.9,594.3,33.9,594.2,33.9C594.3,33.9,594.3,33.9,594.2,33.9z"/>
	<path d="M597.6,46.3c0,0.3,0,0.7,0,1c0,0,0,0.1-0.1,0.1c0,0-0.1-0.1-0.1-0.1c0-0.7,0-1.4,0-2.1c0-0.1,0-0.1,0.1-0.1
		c0,0.1,0.1,0.1,0.1,0.1C597.6,45.6,597.6,46,597.6,46.3z"/>
</g>
</svg>
