<svg fill="none" height="20" viewBox="0 0 70 20" width="70" xmlns="http://www.w3.org/2000/svg"><g fill="#000"><path d="m19.74 16v-11.9h-2.295v11.9zm5.0947 0v-7.803h.034l4.403 7.803h2.261v-11.9h-2.312v7.803h-.034l-4.352-7.803h-2.295v11.9zm11.7207 0v-4.607h4.777v-2.023h-4.777v-3.145h5.253v-2.125h-7.548v11.9zm14.3111-6.052c0 2.941-1.156 4.199-2.788 4.199s-2.788-1.292-2.788-4.199c0-2.584 1.207-3.978 2.788-3.978 1.564 0 2.788 1.394 2.788 3.978zm-7.956 0c0 2.193.629 3.91 1.598 4.879 1.003.952 2.21 1.428 3.57 1.428s2.584-.476 3.553-1.428c1.003-.969 1.615-2.686 1.615-4.879 0-1.972-.612-3.621-1.615-4.59-.969-1.003-2.21-1.513-3.553-1.513s-2.567.51-3.57 1.513c-.969.969-1.598 2.618-1.598 4.59z"/><path d="m3.451 18.02h.289c-.816-.935-2.023-3.536-2.023-7.446 0-3.4 1.207-6.511 2.023-7.446h-.289c-.68.765-2.618 4.08-2.618 7.446 0 3.876 1.938 6.681 2.618 7.446z"/><path d="m65.782 18.02h.289c.68-.765 2.618-3.57 2.618-7.446 0-3.366-1.938-6.681-2.618-7.446h-.289c.816.935 2.023 4.046 2.023 7.446 0 3.91-1.207 6.511-2.023 7.446z"/></g></svg>