<svg width="761" height="439" viewBox="0 0 761 439" fill="none" xmlns="http://www.w3.org/2000/svg">
<path d="M0.5 439C182.75 400 328.25 257.5 328.25 120.25C328.25 46.75 285.5 0.249989 218 0.249989C137 0.249989 72.5 68.5 72.5 155.5C72.5 220 110.75 263.5 173 263.5C196.25 263.5 219.5 258.25 235.25 249.25C188.75 332.5 107 396.25 0.5 428.5V439ZM288.5 298C323.75 298 337.25 295.75 382.25 295.75C423.5 295.75 431 298 473.75 298L476.75 288.25C414.5 282.25 407.75 277 416.75 246.25L488 1.74999L360.5 39.25V52C422.75 34.75 429.5 39.25 422.75 62.5L373.25 240.25C362 280 360.5 280 291.5 288.25L288.5 298ZM760.25 34.75C760.25 15.25 745.25 3.99999 727.25 3.99999C677 3.99999 629.75 58.75 574.25 175.75L628.25 8.49999L517.25 43V55C566 42.25 571.25 43 566 60.25L497 298H539.75C588.5 157.75 655.25 57.25 701.75 40.75L715.25 73C738.5 73 760.25 57.25 760.25 34.75ZM198.5 244C154.25 244 127.25 205 127.25 146.5C127.25 73 167 16 218 16C254.75 16 275.75 45.25 275.75 98.5C275.75 141.25 262.25 196 243.5 231.25C230 239.5 214.25 244 198.5 244Z" fill="black"/>
</svg>
