<?xml version="1.0" encoding="utf-8"?>
<!-- Generator: Adobe Illustrator 25.2.0, SVG Export Plug-In . SVG Version: 6.00 Build 0)  -->
<svg version="1.1" id="Layer_1" xmlns="http://www.w3.org/2000/svg" xmlns:xlink="http://www.w3.org/1999/xlink" x="0px" y="0px"
	 viewBox="0 0 50 50" width="50px" height="50px" style="enable-background:new 0 0 50 50;" xml:space="preserve">
<style type="text/css">
	.st0{fill:#FFFFFF;}
</style>
<g id="surface51636402">
	<path class="st0" d="M22,11c0.2,0,0.3,0,0.4,0.1c0.3,0.2,0.6,0.5,0.6,0.9v8h22c0.6,0,1,0.4,1,1v8c0,0.6-0.4,1-1,1H23v8
		c0,0.4-0.2,0.7-0.6,0.9c-0.3,0.2-0.7,0.1-1.1-0.1l-17-13C4.1,25.6,4,25.3,4,25s0.1-0.6,0.4-0.8l17-13C21.6,11.1,21.8,11,22,11z"/>
</g>
</svg>
